<svg width="980" height="680" viewBox="0 0 980 680" fill="none" xmlns="http://www.w3.org/2000/svg">
  <rect width="980" height="680" rx="32" fill="#EEF1F4"/>
  <rect x="116" y="38" width="748" height="604" rx="42" fill="#2B2E31"/>
  <circle cx="490" cy="80" r="14" fill="#151719" stroke="#5E6368" stroke-width="3"/>
  <g fill="#141618">
    <circle cx="190" cy="80" r="3"/><circle cx="204" cy="80" r="3"/><circle cx="218" cy="80" r="3"/>
    <circle cx="762" cy="80" r="3"/><circle cx="776" cy="80" r="3"/><circle cx="790" cy="80" r="3"/>
  </g>
  <rect x="158" y="116" width="664" height="442" rx="12" fill="#101214" stroke="#5D6267" stroke-width="6"/>
  <rect x="174" y="132" width="632" height="410" rx="4" fill="#FFFFFF"/>
  <text x="490" y="204" text-anchor="middle" fill="#34383C" font-family="Arial, Helvetica, sans-serif" font-size="24" font-weight="700">CHOOSE YOUR LANGUAGE</text>
  <text x="490" y="235" text-anchor="middle" fill="#7B8187" font-family="Arial, Helvetica, sans-serif" font-size="14">Select a language to continue</text>
  <rect x="303" y="272" width="374" height="58" rx="5" fill="#F3B51B"/>
  <text x="335" y="309" fill="white" font-family="Arial, Helvetica, sans-serif" font-size="18" font-weight="700">English</text>
  <path d="M632 294L641 303L657 287" stroke="white" stroke-width="4" stroke-linecap="round" stroke-linejoin="round"/>
  <rect x="303" y="344" width="374" height="58" rx="5" fill="#F7F7F5" stroke="#D9DADB" stroke-width="1.5"/>
  <text x="335" y="381" fill="#3B3F43" font-family="Arial, Helvetica, sans-serif" font-size="18" font-weight="700">Español</text>
  <rect x="303" y="416" width="374" height="58" rx="5" fill="#F7F7F5" stroke="#D9DADB" stroke-width="1.5"/>
  <text x="335" y="453" fill="#3B3F43" font-family="Arial, Helvetica, sans-serif" font-size="18" font-weight="700">Français</text>
  <circle cx="490" cy="597" r="14" fill="#151719" stroke="#5E6368" stroke-width="3"/>
  <rect x="728" y="580" width="58" height="34" rx="17" fill="#F3F5F6" stroke="#A7ADB3" stroke-width="3"/>
</svg>
